<svg width="600" height="600" viewBox="0 0 600 600" fill="none" xmlns="http://www.w3.org/2000/svg">
<rect width="600" height="600" fill="white"/>
<path d="M289.993 42.7237C293.688 35.39 304.158 35.39 307.853 42.7237L386.694 199.194C391.251 208.238 381.022 217.548 372.446 212.163L304.241 169.339C300.989 167.297 296.857 167.297 293.606 169.339L225.4 212.163C216.824 217.548 206.595 208.238 211.152 199.194L289.993 42.7237Z" fill="#EAE1E1"/>
<rect x="278" y="160" width="45" height="323" rx="11" fill="#D28510"/>
<rect x="288" y="160" width="23" height="323" rx="11" fill="#E89C29"/>
<path d="M291.07 42.7237C294.765 35.39 305.235 35.39 308.93 42.7237L387.771 199.194C392.328 208.238 382.099 217.548 373.523 212.163L305.317 169.339C302.066 167.297 297.934 167.297 294.683 169.339L226.477 212.163C217.901 217.548 207.672 208.238 212.229 199.194L291.07 42.7237Z" fill="#ADADAD"/>
<path d="M298.5 408L379 558L298.5 503L219 558L298.5 408Z" fill="#D9D9D9"/>
<path d="M299.5 408L380 558L299.5 503L220 558L299.5 408Z" fill="#B8B8B8"/>
</svg>
