<svg width="600" height="600" viewBox="0 0 600 600" fill="none" xmlns="http://www.w3.org/2000/svg">
<rect width="600" height="600" fill="white"/>
<path d="M310.007 557.276C306.312 564.61 295.842 564.61 292.147 557.276L213.306 400.806C208.749 391.762 218.978 382.452 227.554 387.837L295.76 430.661C299.011 432.703 303.143 432.703 306.394 430.661L374.6 387.837C383.176 382.452 393.405 391.762 388.848 400.806L310.007 557.276Z" fill="#EAE1E1"/>
<rect x="322" y="440" width="45" height="323" rx="11" transform="rotate(-180 322 440)" fill="#D28510"/>
<rect x="312" y="440" width="23" height="323" rx="11" transform="rotate(-180 312 440)" fill="#E89C29"/>
<path d="M308.93 557.276C305.235 564.61 294.765 564.61 291.07 557.276L212.229 400.806C207.672 391.762 217.901 382.452 226.477 387.837L294.683 430.661C297.934 432.703 302.066 432.703 305.317 430.661L373.523 387.837C382.099 382.452 392.328 391.762 387.771 400.806L308.93 557.276Z" fill="#ADADAD"/>
<path d="M301.5 192L221 42L301.5 97L381 42L301.5 192Z" fill="#D9D9D9"/>
<path d="M300.5 192L220 42L300.5 97L380 42L300.5 192Z" fill="#B8B8B8"/>
</svg>
