<svg width="600" height="600" viewBox="0 0 600 600" fill="none" xmlns="http://www.w3.org/2000/svg">
<rect width="600" height="600" fill="white"/>
<path d="M290.993 61.7236C294.688 54.39 305.158 54.39 308.853 61.7237L387.694 218.194C392.251 227.238 382.022 236.548 373.446 231.163L305.241 188.339C301.989 186.297 297.857 186.297 294.606 188.339L226.4 231.163C217.824 236.548 207.595 227.238 212.152 218.194L290.993 61.7236Z" fill="#EAE1E1"/>
<rect x="278" y="158" width="45" height="323" rx="11" fill="#D28510"/>
<rect x="288" y="158" width="23" height="323" rx="11" fill="#E89C29"/>
<path d="M291.07 40.7236C294.765 33.39 305.235 33.39 308.93 40.7237L387.771 197.194C392.328 206.238 382.099 215.548 373.523 210.163L305.317 167.339C302.066 165.297 297.934 165.297 294.683 167.339L226.477 210.163C217.901 215.548 207.672 206.238 212.229 197.194L291.07 40.7236Z" fill="#ADADAD"/>
<path d="M299.5 423L380 573L299.5 518L220 573L299.5 423Z" fill="#D9D9D9"/>
<path d="M299.5 406L380 556L299.5 501L220 556L299.5 406Z" fill="#B8B8B8"/>
<path d="M117.52 239.482C119.37 235.824 124.594 235.824 126.444 239.482L161.867 309.525C164.152 314.042 159.046 318.705 154.754 316.02L124.634 297.179C123.012 296.164 120.953 296.164 119.331 297.179L89.2106 316.02C84.9184 318.705 79.8122 314.042 82.0971 309.525L117.52 239.482Z" fill="#EAE1E1"/>
<rect x="111.86" y="283.1" width="20.7769" height="148.58" rx="10.3885" fill="#D28510"/>
<rect x="116.477" y="283.1" width="10.6193" height="148.58" rx="5.30966" fill="#E89C29"/>
<path d="M117.556 229.822C119.406 226.164 124.63 226.164 126.48 229.822L161.903 299.865C164.188 304.382 159.082 309.045 154.789 306.36L124.669 287.519C123.047 286.504 120.988 286.504 119.366 287.519L89.2461 306.36C84.9539 309.045 79.8478 304.382 82.1327 299.865L117.556 229.822Z" fill="#ADADAD"/>
<path d="M121.787 405L158.955 474L121.787 448.7L85.081 474L121.787 405Z" fill="#D9D9D9"/>
<path d="M121.787 397.18L158.955 466.18L121.787 440.88L85.081 466.18L121.787 397.18Z" fill="#B8B8B8"/>
<path d="M487.52 247.482C489.37 243.824 494.594 243.824 496.444 247.482L531.867 317.525C534.152 322.042 529.046 326.705 524.754 324.02L494.634 305.179C493.012 304.164 490.953 304.164 489.331 305.179L459.211 324.02C454.918 326.705 449.812 322.042 452.097 317.525L487.52 247.482Z" fill="#EAE1E1"/>
<rect x="481.86" y="291.1" width="20.7769" height="148.58" rx="10.3885" fill="#D28510"/>
<rect x="486.477" y="291.1" width="10.6193" height="148.58" rx="5.30966" fill="#E89C29"/>
<path d="M487.556 237.822C489.406 234.164 494.63 234.164 496.48 237.822L531.903 307.865C534.188 312.382 529.082 317.045 524.789 314.36L494.669 295.519C493.047 294.504 490.988 294.504 489.366 295.519L459.246 314.36C454.954 317.045 449.848 312.382 452.133 307.865L487.556 237.822Z" fill="#ADADAD"/>
<path d="M491.787 413L528.954 482L491.787 456.7L455.081 482L491.787 413Z" fill="#D9D9D9"/>
<path d="M491.787 405.18L528.954 474.18L491.787 448.88L455.081 474.18L491.787 405.18Z" fill="#B8B8B8"/>
</svg>
