<svg width="600" height="600" viewBox="0 0 600 600" fill="none" xmlns="http://www.w3.org/2000/svg">
<rect width="600" height="600" fill="white"/>
<path d="M309.007 536.276C305.312 543.61 294.842 543.61 291.147 536.276L212.306 379.806C207.749 370.762 217.978 361.452 226.554 366.837L294.76 409.661C298.011 411.702 302.143 411.702 305.394 409.661L373.6 366.837C382.176 361.452 392.405 370.762 387.848 379.806L309.007 536.276Z" fill="#EAE1E1"/>
<rect x="322" y="440" width="45" height="323" rx="11" transform="rotate(-180 322 440)" fill="#D28510"/>
<rect x="312" y="440" width="23" height="323" rx="11" transform="rotate(-180 312 440)" fill="#E89C29"/>
<path d="M308.93 557.276C305.235 564.61 294.765 564.61 291.07 557.276L212.229 400.806C207.672 391.762 217.901 382.452 226.477 387.837L294.683 430.661C297.934 432.702 302.066 432.702 305.317 430.661L373.523 387.837C382.099 382.452 392.328 391.762 387.771 400.806L308.93 557.276Z" fill="#ADADAD"/>
<path d="M300.5 175L220 24.9998L300.5 79.9998L380 24.9998L300.5 175Z" fill="#D9D9D9"/>
<path d="M300.5 192L220 41.9998L300.5 96.9998L380 41.9998L300.5 192Z" fill="#B8B8B8"/>
<path d="M461.9 406.596C460.011 410.096 454.989 410.096 453.1 406.596L407.469 322.033C404.872 317.222 410.775 312.331 415.019 315.776L454.349 347.693C456.186 349.183 458.815 349.183 460.651 347.693L499.981 315.776C504.226 312.331 510.128 317.222 507.531 322.033L461.9 406.596Z" fill="#FCFF67"/>
<path d="M461.321 418.346C459.432 421.846 454.41 421.846 452.521 418.346L406.889 333.783C404.293 328.972 410.195 324.081 414.44 327.526L453.77 359.443C455.606 360.933 458.235 360.933 460.071 359.443L499.401 327.526C503.646 324.081 509.548 328.972 506.952 333.783L461.321 418.346Z" fill="#D7DA3E"/>
<path d="M162.9 298.596C161.011 302.096 155.989 302.096 154.1 298.596L108.469 214.033C105.872 209.222 111.775 204.331 116.019 207.776L155.349 239.693C157.186 241.183 159.815 241.183 161.651 239.693L200.981 207.776C205.226 204.331 211.128 209.222 208.531 214.033L162.9 298.596Z" fill="#FCFF67"/>
<path d="M162.321 310.346C160.432 313.846 155.41 313.846 153.521 310.346L107.889 225.783C105.293 220.972 111.195 216.081 115.44 219.526L154.77 251.443C156.606 252.933 159.235 252.933 161.071 251.443L200.401 219.526C204.646 216.081 210.548 220.972 207.952 225.783L162.321 310.346Z" fill="#D7DA3E"/>
</svg>
