<svg width="600" height="600" viewBox="0 0 600 600" fill="none" xmlns="http://www.w3.org/2000/svg">
<g clip-path="url(#clip0_12_50)">
<rect width="600" height="600" fill="white"/>
<path fill-rule="evenodd" clip-rule="evenodd" d="M297 325C374.872 325 438 261.872 438 184C438 106.128 374.872 43 297 43C219.128 43 156 106.128 156 184C156 261.872 219.128 325 297 325ZM297 256C336.764 256 369 223.764 369 184C369 144.235 336.764 112 297 112C257.235 112 225 144.235 225 184C225 223.764 257.235 256 297 256Z" fill="black"/>
<rect x="70" y="358" width="460" height="347" rx="100" fill="black"/>
<path d="M162 501C162 472.833 184.833 450 213 450H387C415.167 450 438 472.833 438 501V641C438 669.167 415.167 692 387 692H213C184.833 692 162 669.167 162 641V501Z" fill="white"/>
</g>
<defs>
<clipPath id="clip0_12_50">
<rect width="600" height="600" fill="white"/>
</clipPath>
</defs>
</svg>
